<svg width="32" height="32" viewBox="0 0 32 32" fill="none" xmlns="http://www.w3.org/2000/svg">
<path fill-rule="evenodd" clip-rule="evenodd" d="M14.6667 2.66667H8.00008C5.05475 2.66667 2.66675 5.05467 2.66675 8V24C2.66675 26.9453 5.05475 29.3333 8.00008 29.3333H24.0001C26.9454 29.3333 29.3334 26.9453 29.3334 24C29.3334 20.972 29.3334 17.3333 29.3334 17.3333C29.3334 16.5973 28.7361 16 28.0001 16C27.2641 16 26.6667 16.5973 26.6667 17.3333V24C26.6667 25.472 25.4721 26.6667 24.0001 26.6667C19.5601 26.6667 12.4387 26.6667 8.00008 26.6667C6.52675 26.6667 5.33341 25.472 5.33341 24C5.33341 19.56 5.33341 12.4387 5.33341 8C5.33341 6.52667 6.52675 5.33334 8.00008 5.33334H14.6667C15.4027 5.33334 16.0001 4.736 16.0001 4.00001C16.0001 3.26401 15.4027 2.66667 14.6667 2.66667ZM24.7814 5.33334H20.0001C19.2641 5.33334 18.6667 4.736 18.6667 4.00001C18.6667 3.26401 19.2641 2.66667 20.0001 2.66667H28.0001C28.7361 2.66667 29.3334 3.26401 29.3334 4.00001V12C29.3334 12.736 28.7361 13.3333 28.0001 13.3333C27.2641 13.3333 26.6667 12.736 26.6667 12V7.21867L16.9427 16.9427C16.4227 17.4627 15.5774 17.4627 15.0574 16.9427C14.5361 16.4227 14.5361 15.5773 15.0574 15.0573L24.7814 5.33334Z" fill="#EEFF41"/>
</svg>
